# Blender 4.1.1
# www.blender.org
mtllib untitled.mtl
o Cube
v -0.500000 0.000000 1.000000
v -0.378080 1.892582 0.786088
v -0.500000 0.000000 -1.000000
v -0.378080 1.892582 -0.786088
v 0.500000 0.000000 1.000000
v 0.378080 2.107419 0.786088
v 0.500000 0.000000 -1.000000
v 0.378080 2.107419 -0.786088
v -0.879659 3.533507 0.521996
v -0.879659 3.533507 -0.521996
v -0.470352 3.857465 -0.521996
v -0.470352 3.857465 0.521996
v -1.606355 4.195810 0.409454
v -1.606355 4.195810 -0.409454
v -1.374523 4.533311 -0.409454
v -1.374523 4.533311 0.409454
v -1.606355 4.195810 -0.000000
v -1.490439 4.364561 -0.409454
v -1.374523 4.533311 -0.000000
v -1.490439 4.364561 0.409454
v -1.490439 4.364561 -0.000000
v -2.942305 5.391046 -0.325444
v -2.890025 5.545140 -0.325444
v -2.890026 5.545140 -0.000000
v -2.890026 5.545140 0.325443
v -2.942306 5.391046 0.325443
v -2.942306 5.391046 -0.000000
v -3.945715 5.569582 0.046294
v -3.945715 5.569582 0.363159
v -3.943235 5.411168 0.363159
v -3.943235 5.411168 0.046294
vn -0.9979 0.0643 -0.0000
vn -0.0130 0.1063 -0.9942
vn 0.9983 0.0578 -0.0000
vn -0.0130 0.1063 0.9942
vn -0.0000 -1.0000 -0.0000
vn -0.0602 0.1302 -0.9897
vn 0.5987 0.8010 -0.0000
vn 0.8998 0.4362 -0.0000
vn -0.9563 -0.2923 -0.0000
vn -0.0602 0.1302 0.9897
vn -0.8243 0.5662 -0.0000
vn -0.6736 -0.7391 -0.0000
vn -0.0764 0.0741 0.9943
vn -0.0764 0.0741 -0.9943
vn -0.0417 0.0217 -0.9989
vn -0.5773 -0.8165 -0.0000
vn -0.0201 -0.9998 -0.0000
vn -0.9999 -0.0157 -0.0000
vn 0.5553 0.8317 -0.0000
vn -0.0417 0.0217 0.9989
vn 0.0365 -0.0058 0.9993
vn 0.0231 0.9997 -0.0000
vn -0.0448 0.0071 -0.9990
vt 0.375000 0.000000
vt 0.625000 0.000000
vt 0.625000 0.250000
vt 0.375000 0.250000
vt 0.625000 0.500000
vt 0.375000 0.500000
vt 0.625000 0.750000
vt 0.375000 0.750000
vt 0.625000 1.000000
vt 0.375000 1.000000
vt 0.125000 0.500000
vt 0.125000 0.750000
vt 0.625000 0.625000
vt 0.750000 0.625000
vt 0.875000 0.625000
vt 0.875000 0.750000
vt 0.750000 0.750000
vt 0.625000 0.125000
vt 0.625000 0.875000
vt 0.625000 0.375000
vt 0.750000 0.500000
vt 0.875000 0.500000
vt 0.000000 0.000000
s 0
f 1/1/1 2/2/1 4/3/1 3/4/1
f 3/4/2 4/3/2 8/5/2 7/6/2
f 7/6/3 8/5/3 6/7/3 5/8/3
f 5/8/4 6/7/4 2/9/4 1/10/4
f 3/11/5 7/6/5 5/8/5 1/12/5
f 8/5/6 4/3/6 10/3/6 11/5/6
f 12/7/7 11/5/7 15/5/7 19/13/7 16/7/7
f 6/7/8 8/5/8 11/5/8 12/7/8
f 4/3/9 2/2/9 9/2/9 10/3/9
f 2/9/10 6/7/10 12/7/10 9/9/10
f 21/14/11 17/15/11 13/16/11 20/17/11
f 10/3/12 9/2/12 13/2/12 17/18/12 14/3/12
f 9/9/13 12/7/13 16/7/13 20/19/13 13/9/13
f 11/5/14 10/3/14 14/3/14 18/20/14 15/5/14
f 15/5/15 18/20/15 22/20/15 23/5/15
f 21/14/16 20/17/16 26/17/16 27/14/16
f 18/21/11 14/22/11 17/15/11 21/14/11
f 27/14/17 26/17/17 30/17/17 31/14/17
f 28/13/18 31/14/18 30/17/18 29/7/18
f 19/13/19 15/5/19 23/5/19 24/13/19
f 18/21/16 21/14/16 27/14/16 22/21/16
f 16/7/19 19/13/19 24/13/19 25/7/19
f 20/19/20 16/7/20 25/7/20 26/19/20
f 26/19/21 25/7/21 29/7/21 30/19/21
f 25/7/22 24/13/22 28/13/22 29/7/22
f 24/23/23 27/23/23 31/23/23 28/23/23
